<mxfile host="app.diagrams.net" modified="2024-06-16T17:38:52.437Z" agent="Mozilla/5.0 (Windows NT 10.0; Win64; x64) AppleWebKit/537.36 (KHTML, like Gecko) Chrome/124.0.0.0 Safari/537.36 OPR/110.0.0.0" version="24.5.4" etag="qUG4S-mlMc5PRo68STbY" type="github">
  <diagram name="Page-1" id="AeY8RuHAPDJ4T9_0VYwX">
    <mxGraphModel>
      <root>
        <mxCell id="0" />
        <mxCell id="1" parent="0" />
      </root>
    </mxGraphModel>
  </diagram>
</mxfile>
